<?xml version="1.0" encoding="utf-8"?>
<!-- Generator: Adobe Illustrator 19.0.1, SVG Export Plug-In . SVG Version: 6.00 Build 0)  -->
<svg version="1.1" id="Слой_1" xmlns="http://www.w3.org/2000/svg" xmlns:xlink="http://www.w3.org/1999/xlink" x="0px" y="0px"
	 viewBox="0 0 700 700" style="enable-background:new 0 0 700 700;" xml:space="preserve">
<style type="text/css">
	.st0{fill:#010202;}
</style>
<g>
	<path class="st0" d="M493.1,570.9c10.7,0,18.7-3.7,24.5-11.2c4.3-5.7,6.7-12.3,6.7-19.7c0-8.8-3-16.2-8.8-21.8
		c-5.8-5.8-13.5-8.5-22.8-8.2c-8.7-0.3-16,2.3-22,8.3c-6,5.8-8.8,13.2-8.8,21.8c0,7.8,2.3,14.5,6.8,20.2
		C474.1,567.4,482.4,570.9,493.1,570.9z M480.8,520.9c2.8-5.5,6.8-8.3,12.3-8.3c3,0,5.5,0.8,7.8,2.3c2.2,1.7,4.2,4.3,5.5,8.2
		c1.5,3.8,2.2,9.7,2.2,17.5c0,13.2-3,21.2-8.2,24.8c-2,1.5-4.5,2.2-7.5,2.2c-4.5,0-8-1.7-10.3-5c-3.5-4.8-5.3-12.3-5.3-22.3
		C477.3,531.9,478.4,525.4,480.8,520.9z"/>
	<path class="st0" d="M527.7,568.1v1.7h21v-1.7h-1.5c-3.8,0-7.7-1.8-7.7-8.7v-37.5l39.8,49h1.5v-49c0-2.8,0.3-4.7,0.7-5.8
		c1-2.3,2-3.2,7-3.7v-1.7H569v1.7c3.3-0.2,5.7,0.7,7,2.3c1,1.2,1.5,3.7,1.5,7.2v25.3l-29.1-36.6h-21v1.7c3.5,0.2,5,0.8,7.5,4
		l1.2,1.5v41.6C536.4,565.6,534.2,567.9,527.7,568.1z"/>
	<path class="st0" d="M650.5,454.5c4.3-6.8,9.7-15.5,16.3-25.8c6.7-10.5,15-23.6,25.1-39.5c0.2-0.2,0.2-0.3,0-0.5
		c-0.2-0.2-0.3-0.2-0.5-0.2l-10.2,1c-0.2,0-0.3,0.2-0.3,0.2l-18.5,30.1c-3.7,5.8-7.3,11.3-11.2,16.2c-3.8,4.8-7.2,9.2-10.2,12.5
		l-2.2,2.7c-4.5,5.3-9.2,10.8-14,15.8c-4.7,4.5-8.8,7.8-12.7,9.5c-3.5,1.7-6.3,2.5-8.2,2.5c-0.2,0-0.2,0-0.3,0
		c-2.2-0.2-3.8-0.7-4.7-1.7c-0.8-1-1.3-3-1.3-5.8c0-0.8,0-1.7,0.2-2.5c0-0.7,0.2-1.5,0.3-2.2c2.2-0.5,5-1.2,8.5-2.3
		c3.7-1.2,7.2-2.5,10.5-4.3c3.3-1.7,6.3-3.8,8.8-6c2.5-2.3,3.8-5.2,3.8-8.2c0-2.3-0.7-4.2-2.2-5.7c-1.5-1.5-3.5-2.2-6-2.2
		c-4.3,0-8.8,1.3-13.5,4.2c-7.3,4.3-13.2,10.3-18.5,16.2l-1.3,1.5c-1,1.2-2,2.3-3,3.3c-1.2,1.3-2.7,2.8-4.7,4.8
		c-3.5,3.5-6.5,6.2-9.2,8c-2.7,1.8-5,2.8-7.3,2.8c-2.2,0-2.5-1-2.5-1.8c0-1,0.7-2.8,1.8-5.3c1.2-2.7,2.8-5.5,4.7-8.7
		c1.8-3.2,4-6.7,6.3-10.3c2.3-3.8,4.7-7.3,6.7-10.5c2.2-3.3,4-6.2,5.7-8.8l0.2-0.2c1.7-2.5,2.8-4.5,3.7-6h18.8
		c0.8,0,1.2-0.5,1.2-1.3s-0.5-1.3-1.2-1.3h-17l9.5-14.7c0.2-0.2,0.2-0.3,0-0.5c-0.2-0.2-0.2-0.2-0.3-0.2l-9.5,0.7
		c-0.2,0-0.3,0.2-0.3,0.2l-9,14.5h-6.2c-0.3,0-1.2,0.2-1.2,1.3c0,0.8,0.5,1.3,1.2,1.3h4.7c-1.5,2.3-3.3,4.7-5,7
		c-2.2,2.8-4,5.2-5.8,7.5c-2,2.5-3.7,4.5-5.3,6.5c-1.7,1.8-3,3.5-4.2,4.8c-0.8,1-1.8,2-2.7,3c-4.7,5.7-10.5,12.5-18.5,12.5
		c-0.3,0-0.5,0-0.8,0c1-1,1.8-2.2,2.8-3.5c1-1.5,2-3.2,3-5c0.8-1.7,1.7-3.5,2.2-5.3s0.8-3.5,0.8-5.2c0-3.2-0.8-5.8-2.5-7.8
		c-1.7-2.2-4.2-3.2-7.2-3.2c-3.5,0-7.5,1-12,2.8c-4.5,1.8-9,5-13.5,9.3c-4.2,4-8,8.3-11.8,12.7c-4,4.5-8.3,9-13,12.8
		c-2.5,2-5,3.2-7.2,3.2c-0.7,0-1.2-0.2-1.3-0.5c-0.3-0.3-0.5-0.8-0.5-1.2c0-1.5,0.8-3.7,2.5-6.2c1.7-2.7,3.7-5.3,5.8-8.3
		c2.2-2.8,4.2-5.7,5.8-8.5c1.8-2.8,2.7-5.5,2.7-7.7c0-2.2-0.5-4-1.5-5.8s-2.8-2.7-5.2-2.7c-2.8,0-6.8,2.3-12.5,7
		c-5,4.2-10.8,10.2-17.3,17.7c1.5-2.7,3.3-5.8,5.3-9.2c2.7-4.5,5.5-9.3,8.5-14.5c3-5,6-10.2,9.2-15.3c3.2-5.2,6-10,8.8-14.7
		c2.8-4.5,5.2-8.7,7.3-12.2c2.2-3.7,3.7-6.2,4.5-8c0.2-0.2,0-0.3,0-0.5c-0.2-0.2-0.3-0.2-0.5-0.2l-9.3,1c-0.2,0-0.3,0.2-0.3,0.2
		l-16.5,28.5c-3.3,5.8-7,11.2-10.7,16.2c-3.7,5-7.2,9.3-10.3,12.8c-3.2,3.7-5.7,6.5-7.7,8.7c-3,3.2-3.2,3.8-3.2,4.2
		c0,1.3,0.8,1.3,1.2,1.3c0.2,0,0.5-0.2,0.7-0.3c0.2-0.2,0.5-0.5,1-1l2-2.3c0.8-0.8,1.8-2.2,3.3-3.7l0.5-0.7c2.8-3,5-5.5,6.5-7.5
		c0.7-1,1.5-1.8,2.3-3c-7.8,12-15.7,24.6-23.1,38c-0.2,0.2-0.2,0.3,0,0.5c0.2,0.2,0.3,0.2,0.5,0.2l9.5-1c0.2,0,0.3-0.2,0.3-0.3
		c0.7-1.3,2-3.3,3.8-5.8c1.8-2.5,4.2-5.3,6.7-8.2c2.5-3,5.3-6,8.2-9c2.8-3,5.7-5.8,8.5-8.3c2.7-2.5,5.2-4.5,7.5-6
		c2.3-1.5,4-2.3,5.3-2.3c0.3,0,0.5,0.2,0.8,0.5c0.3,0.3,0.5,0.7,0.5,1c0,1.3-0.8,3.2-2.5,5.2c-1.7,2.2-3.7,4.5-5.8,7
		c-2.2,2.5-4.2,5.3-5.8,8.5c-1.8,3-2.7,6.3-2.7,9.8s0.7,5.8,2,7.2c1.3,1.2,2.8,1.8,4.5,1.8c1,0,2-0.2,3.2-0.5c3.8-1,7-3.7,9.5-6
		c2.8-2.3,5.5-5.2,8.3-8.3c1.5-1.7,3-3.5,4.3-5.2c1-1.2,1.7-2,2-2.5c0.2-0.2,0.3-0.2,0.5-0.2c0,0,0,0.2,0,0.5c0,0.5-0.2,1.2-0.3,2.2
		c-0.3,1-0.3,3-0.3,5.8c0,4.3,0.8,7.7,2.5,10.2c1.7,2.7,4.2,3.8,7.5,3.8c4.3,0,8.3-1.2,11.5-3.5c3.2-2.3,6-4.7,8.3-7.3
		c0.3,0,0.8,0.2,1.8,0.2c3,0,5.8-0.7,8.5-1.8c2.7-1.2,5-2.8,7-5c2.7-2.8,5.2-5.7,7.7-8.7c1.7-2,3.5-4.2,5.3-6.2
		c0.3-0.3,0.7-0.7,0.8-1c-1.2,1.7-2.2,3.2-3.2,4.7c-1.8,2.7-3.3,5.2-4.5,7.3c-1.2,2.3-2.2,4.5-2.8,6.7c-0.7,2.2-1,4.3-1,6.5
		c0,1.8,0.5,3.7,1.7,5.3s3.2,2.7,6,2.7c2.2,0,4.8-1,8-2.8c3-1.8,6.8-5.2,11.7-9.8c0.8-0.8,1.7-1.7,2.7-2.8c1-1,1.8-2,2.7-3
		c0.5-0.7,1-1.2,1.5-1.7c0,0.2,0,0.2,0,0.3c-1,5,0.2,10.5,2.8,14.5c1,1.5,2.3,2.8,3.8,3.8c1.5,1,3.5,1.5,5.7,1.5
		c3.7-0.2,7.2-1,10.3-2.5c5-2.3,9.3-6.3,13.3-10.2c2.3-2.3,4.3-4.7,6.5-7.2c1-1.2,2.2-2.5,3.2-3.7c0.8-1,2-2.3,3.5-3.8
		c2.7-2.8,4.5-5,6-6.8c0.7-0.8,1.3-1.7,2-2.3c-2,3.2-3.7,6-5.2,8.2c-2,3-3.7,5.5-5,7.7c-1.3,2.2-2.3,4.3-3,6.2c-0.7,2-1,4-1,6.3
		c0,2.2,0.5,4,1.3,5.7c1,1.7,2.8,2.5,5.7,2.5c3,0,6.5-1.3,10.2-4.2c3.7-2.7,7.7-6.5,12.2-11.3c0.5-0.7,1.2-1.3,1.7-2
		c0.7-0.7,1.3-1.5,2-2.2s1.2-1.3,1.5-1.8c0.7-0.8,0.7-1,0.7-1.2c0-0.8-0.5-1.2-1.2-1.2c-0.5,0-1,0.3-2.5,2.3c-1,1.3-3.2,3.8-6.7,7.2
		c-3.8,3.8-7.2,6.8-10,8.7c-2.7,1.8-5.2,2.8-7.5,2.8c-0.7,0-1-0.2-1.5-0.5c-0.3-0.3-0.5-0.7-0.5-1c0-1.7,0.8-4.3,2.5-7.7
		C643.3,466.3,646.3,461.1,650.5,454.5z M602.3,457.3c1.7-2.7,3.7-5.3,6-7.8c2.3-2.5,4.7-4.5,7-6.2s4.5-2.5,6.5-2.5
		c1.8,0,2.7,0.8,2.7,2.5c0,2.7-0.8,5.2-2.7,7.5c-1.8,2.3-4,4.5-6.5,6.3c-2.7,1.8-5.5,3.3-8.5,4.5c-2.7,1-5.3,1.8-7.7,2.2
		C599.7,462,600.8,459.6,602.3,457.3z M534.7,468.3c-2.5,3-5.3,5.7-8.3,7.7c-3,2-6,3-9,3c-1,0-1.8-0.3-2.5-1c-0.7-0.7-1-2.2-1-4.2
		c0-3.2,0.8-6.7,2.3-10.3c1.5-3.8,3.5-7.5,6-10.8c2.3-3.3,5.2-6.2,8-8.3s5.7-3.3,8.2-3.3c1.8,0,3,0.7,3.7,1.8
		c0.8,1.3,1.2,2.8,1.2,4.7c0,3.3-0.8,7-2.3,10.7C539.2,461.8,537.2,465.3,534.7,468.3z"/>
	<path class="st0" d="M116.4,457.5c2-2.3,4.2-4.5,6.3-6.8c1.8-2,3.7-3.8,5.5-5.3c-1.2,1.7-2.5,3.3-3.8,5c-1.8,2.2-3.7,4.5-5.2,6.8
		c-1.7,2.3-3,4.8-4.2,7.5s-1.7,5.5-1.7,8.3c0,2.5,0.7,4.5,1.8,6.2c1.2,1.7,3.2,2.5,5.8,2.5c1.8,0,3.8-0.7,5.8-1.8c2-1.2,4-2.7,6-4.5
		c2-1.7,3.8-3.5,5.3-5.3l3.3-3.5c-0.5,1.7-0.7,3.3-0.7,4.8c0,1,0,2,0.2,3.2c0.2,1.2,0.5,2.3,1,3.3c0.5,1.2,1.2,2,2.2,2.7
		c1,0.7,2.2,1.2,3.7,1.2c2.2,0,4.7-1,7.3-3c1.3-1,2.7-2,3.8-3.2c4.3-3.8,8.2-8.2,12-12.3c4-4.5,8-9.3,12.2-13.8
		c0.3-0.3,0.7-0.7,0.8-1c-1.2,1.7-2.2,3.2-3.2,4.7c-1.8,2.7-3.3,5.2-4.5,7.3c-1.2,2.3-2.2,4.5-2.8,6.7c-0.7,2.2-1,4.3-1,6.5
		c0,1.8,0.5,3.7,1.7,5.3c1.2,1.7,3.2,2.7,6,2.7c2.2,0,4.8-1,8-2.8c3-1.8,6.8-5.2,11.7-9.8c0.8-0.8,1.7-1.7,2.7-2.8
		c2.3-2.3,4.3-5,6.5-7.3c3.7-4.2,6.5-7.3,8.7-9.5c0.8-0.8,1.5-1.7,2.2-2.3c-0.8,1.2-1.8,2.5-2.7,3.7c-1.7,2.2-3.3,4.7-4.8,7.2
		c-1.5,2.5-2.8,5-3.8,7.7c-1,2.7-1.5,5.2-1.5,7.8c0,2.5,0.7,4.5,2,6c1.3,1.7,3.3,2.3,5.8,2.3c4.7,0,10.7-3.8,18.5-12
		c3.2-3.3,5.7-6,7.2-7.8c0.3-0.5,0.7-0.8,0.8-1.2l0.2-0.2c0.3-0.3,0.5-0.7,0.8-1c0.2,0,0.2,0,0.3,0c0,0.3-0.2,1-0.5,2.3
		c-0.3,1.7-0.5,3.5-0.5,5.3c0,4.3,0.8,7.7,2.3,10.3c1.5,2.7,4,4,7.2,4c2.2,0,4.5-0.7,7-2c2.3-1.3,4.7-2.8,6.8-4.7
		c2.2-1.8,4.2-3.5,5.7-5.3c0.7-0.7,1.2-1.3,1.7-1.8l-26.5,43.3h-19.2v1.7h2c1.7,0,3,0.3,4,0.8c1,0.5,1.7,1.2,2,2
		c0.3,0.7,0.5,2.7,0.5,5.7v38.8c0,3-0.2,4.8-0.5,5.5c-0.5,1-1,1.7-1.8,2.2c-1,0.7-2.3,0.8-4.2,0.8h-1.7c-1.5-0.2-3-0.7-4.2-1.5
		c-0.8-0.7-2.2-2.2-4-4.8l-14.2-20c3.7-0.8,6.3-2.2,8.3-4c3.2-2.8,4.7-6.3,4.7-10.8c0-3.7-1-6.8-3.2-9.3c-2-2.7-4.8-4.5-8.2-5.5
		s-8.5-1.5-15.7-1.5h-27.3v1.7c2.7,0,4.5,0.3,5.5,0.8c1,0.5,1.7,1.2,2,2c0.5,0.8,0.7,2.8,0.7,6v38.3c0,3.2-0.2,5.2-0.7,6
		c-0.7,1.7-2.2,2.8-7.5,2.8v1.7h30.1v-1.7c-2.7,0-4.5-0.3-5.5-0.7c-1-0.5-1.7-1.2-2-2c-0.3-0.8-0.5-2.8-0.5-6v-16.5h3.8l19,26.8h18
		h0.7h30.5v-1.7h-2c-1.7,0-3-0.3-3.8-0.8c-1-0.7-1.7-1.2-2-2c-0.3-0.8-0.5-2.7-0.5-5.7v-37.5c2.2-3.8,5.3-8.3,9.2-13.2
		c3.8-4.8,8-9.7,12.2-14.5c4.7-5.3,9.5-10.7,14.3-16c4.7-5.2,9.2-10.3,13.8-15.3l2.3-2.5c3.3-3.7,8.3-9,9.3-10
		c1.8-2,3.7-3.8,5.5-5.3c-1.2,1.7-2.5,3.3-3.8,5c-1.8,2.2-3.7,4.5-5.2,6.8c-1.7,2.3-3,4.8-4.2,7.5c-1.2,2.7-1.7,5.5-1.7,8.3
		c0,2.5,0.7,4.5,1.8,6.2c1.2,1.7,3.2,2.5,5.8,2.5c1.8,0,3.8-0.7,5.8-1.8c2-1.2,4-2.7,6-4.5c2-1.7,3.8-3.5,5.3-5.3l3.3-3.5
		c-0.5,1.7-0.7,3.3-0.7,4.8c0,1,0,2,0.2,3.2c0.2,1.2,0.5,2.3,1,3.3c0.5,1.2,1.2,2,2.2,2.7c1,0.7,2.2,1.2,3.7,1.2c2.2,0,4.7-1,7.3-3
		c4.7-3.3,8.7-7.7,12.5-11.8c1-1.2,2.2-2.2,3.2-3.3c0.7-0.7,1.3-1.5,1.8-2c0,0.2,0,0.3,0,0.3c-0.2,0.8-0.2,1.8-0.2,3
		c0,2,0.2,4.2,0.7,6.2c0.5,2,1.2,3.8,2.3,5.3c1,1.5,2.3,2.8,3.8,3.8c1.5,1,3.5,1.5,5.7,1.5c3.7-0.2,7.2-1,10.3-2.5
		c3.3-1.5,6.8-4.2,10.8-7.8c1.2-1,2.3-2.2,3.7-3.5c1.3-1.3,2.5-2.7,3.5-3.8c1-1.2,1.8-2.2,2.5-3c1-1.2,1.2-1.5,1.2-1.8
		c0-0.8-0.5-1.3-1.2-1.3c-0.3,0-0.8,0.2-2.5,2.3c-1,1.3-3,3.7-6,6.7c-4.7,4.5-8.8,7.8-12.7,9.5c-3.5,1.7-6.3,2.5-8.2,2.5
		c-0.2,0-0.2,0-0.3,0c-2.2-0.2-3.8-0.7-4.7-1.7c-0.8-1-1.3-3-1.3-5.8c0-0.8,0-1.7,0.2-2.5c0.2-0.7,0.2-1.5,0.3-2.2
		c2.2-0.5,5-1.2,8.5-2.3c3.7-1.2,7.2-2.5,10.5-4.3c3.3-1.7,6.3-3.8,8.8-6c2.5-2.3,3.8-5.2,3.8-8.2c0-2.3-0.7-4.2-2.2-5.7
		c-1.5-1.5-3.5-2.2-6-2.2c-4.3,0-8.8,1.3-13.5,4.2c-4.7,2.7-9.2,6.3-13.5,10.7c-0.3,0.3-0.8,0.8-1.3,1.5c-0.5,0.5-1,1-1.5,1.7
		l-0.3,0.5c-5.2,5.5-9.8,11.5-15.5,16.5c-1.5,1.3-3,2.5-4.7,3.7c-3,2-4.3,2.3-5.2,2.3c-1.5,0-2.2-0.7-2.2-2.2c0-1,0.5-2.5,1.3-4.5
		c1-2,2.2-4.2,3.7-6.5c1.5-2.5,3.2-5,4.8-7.5c1.8-2.7,3.5-5.3,5.3-7.7c1.8-2.5,3.3-4.8,4.7-6.8c1.3-2,2.5-3.7,3.2-5
		c0.2-0.2,0.2-0.3,0-0.5c-0.2-0.2-0.3-0.2-0.5-0.2l-9.8,0.7c-0.2,0-0.3,0.2-0.3,0.2c-2.3,4-5.3,8.5-8.8,13.2c-3.5,4.7-7.2,9-10.8,13
		c-3.7,4-7.2,7.3-10.5,10c-3.2,2.5-5.8,3.8-7.7,3.8c-0.5,0-1-0.2-1.5-0.5c-0.5-0.3-0.7-0.8-0.7-1.7c0-1.5,0.3-2.8,0.8-4.2
		c0.5-1.3,1.7-3.2,3.2-5.7c1.7-2.5,3.8-6,6.8-10.3c2.8-4.3,6.7-10.2,11.5-17.8c0.2-0.2,0.2-0.3,0-0.5c-0.2-0.2-0.3-0.2-0.5-0.2
		l-8.7,0.7c-0.2,0-0.2,0-0.3,0.2c-2.7,2.2-5,4.2-7,6.2c-5.2,5.2-10.2,10.5-14.3,15.2c-4.3,4.8-8.7,9.5-13,14.3
		c-1.2,1.3-2.5,2.8-3.7,4.2c-2.2,2.3-4.2,4.7-6.3,7c-5.7,6.5-11.3,13.2-16.7,19.8l38.8-65.8c0.2-0.2,0.2-0.3,0-0.5
		c-0.2-0.2-0.3-0.3-0.5-0.2l-8.5,0.3c-0.2,0-0.3,0.2-0.3,0.2l-5.8,10.2c0-0.3,0.2-0.5,0.2-0.8c0.3-1.2,0.3-2.2,0.3-2.8
		c0-2.8-0.8-5-2.3-6.2c-2.8-2.2-6.8-2.2-12.2-0.8c-2.3,0.7-4.8,1.5-7.5,2.7c-2.7,1.2-5.3,2.7-8,4.5c-2.7,1.8-5.2,4-7.7,6.5
		c-2.7,2.8-5.3,5.5-7.8,8.5c-0.8,1-1.8,2.2-2.8,3.3c-4.7,5.2-9.8,10.3-16,13.5c-1.3,0.7-2.7,1-3.8,1c-0.7,0-1.2-0.2-1.7-0.5
		c-0.5-0.3-0.7-1-0.7-2.2c0-0.8,0.2-1.7,0.7-2.8c0.5-1.2,1.5-3,3-5.7c1.5-2.7,3.7-6.2,6.5-10.7c2.8-4.5,6.5-10.7,11.2-18.2
		c0.2-0.2,0.2-0.3,0-0.5c-0.2-0.2-0.3-0.2-0.5-0.2l-9.7,0.7c-0.2,0-0.3,0-0.3,0.2c-0.7,0.8-1.5,1.8-2.5,3c-1,1.2-2.2,2.5-3.5,3.8
		c-1.2,1.3-2.5,2.8-3.8,4.2c-1.3,1.3-2.5,2.7-3.5,3.8c-4.3,4.8-8.5,9.8-13,14.3c-3.5,3.5-6.5,6.2-9.2,8c-2.7,1.8-5.2,2.8-7.3,2.8
		s-2.5-1-2.5-1.8c0-1,0.7-2.8,1.8-5.3c1.2-2.7,2.8-5.5,4.7-8.7c1.8-3.2,4-6.7,6.3-10.3c2.3-3.8,4.7-7.3,6.7-10.5
		c2.2-3.3,4-6.2,5.7-8.8l0.2-0.2c1.7-2.5,2.8-4.5,3.7-6h18.8c0.8,0,1.2-0.5,1.2-1.3s-0.5-1.3-1.2-1.3h-17l9.5-14.7
		c0.2-0.2,0.2-0.3,0-0.5c-0.2-0.2-0.3-0.2-0.5-0.2l-9.5,0.7c-0.2,0-0.3,0.2-0.3,0.2l-9,14.5h-6c-0.3,0-1.2,0.2-1.2,1.3
		c0,0.8,0.5,1.3,1.2,1.3h4.7c-1.5,2.3-3.3,4.7-5,7c-2.2,2.8-4,5.2-5.8,7.5c-2,2.5-3.7,4.5-5.3,6.5c-1.7,1.8-3,3.5-4.2,4.8
		c-4.7,5.3-9.5,10.7-14.3,15.8c-3.5,3.8-6.5,6.5-9,8c-3,2-4.3,2.3-5.2,2.3c-1.5,0-2.2-0.7-2.2-2.2c0-1,0.5-2.5,1.3-4.5
		c1-2,2.2-4.2,3.7-6.5c1.5-2.5,3.2-5,4.8-7.5c1.8-2.7,3.5-5.3,5.3-7.7c1.8-2.5,3.3-4.8,4.7-6.8c1.3-2,2.5-3.7,3.2-5
		c0.2-0.2,0.2-0.3,0-0.5c-0.2-0.2-0.2-0.2-0.5-0.2l-9.8,0.7c-0.2,0-0.3,0.2-0.3,0.2c-2.3,4-5.3,8.5-8.8,13.2c-3.5,4.7-7.2,9-10.8,13
		c-3.7,4-7.2,7.3-10.5,10c-3.2,2.5-5.8,3.8-7.7,3.8c-0.5,0-1-0.2-1.5-0.5c-0.5-0.3-0.7-0.8-0.7-1.7c0-1.5,0.3-2.8,0.8-4.2
		c0.5-1.3,1.7-3.2,3.2-5.7c1.7-2.5,3.8-6,6.8-10.3c2.8-4.3,6.7-10.2,11.5-17.8c0.2-0.2,0.2-0.3,0-0.5c-0.2-0.2-0.3-0.2-0.5-0.2
		l-8.7,0.7c-0.2,0-0.2,0-0.3,0.2c-2.7,2.2-5,4.2-7,6.2c-2.2,2-3.8,3.8-5.3,5.3c-1.5,1.5-2.8,3.2-4.3,4.8c-2.2,2.5-4.5,5.2-7,7.5
		c-1.5,1.5-3,2.5-4.7,3.5c-2.3,1.3-4.8,2-7.5,2c-0.3,0-0.5,0-0.8,0c1-1,1.8-2.2,2.8-3.5c1-1.5,2-3.2,3-5c0.8-1.7,1.7-3.5,2.2-5.3
		c0.5-1.8,0.8-3.5,0.8-5.2c0-3.2-0.8-5.8-2.5-7.8c-1.7-2.2-4.2-3.2-7.2-3.2c-3.5,0-7.5,1-12,2.8s-9,5-13.5,9.3l-2.8,2.8
		c-4.3,4.3-7.8,9.8-13.5,12.7c-2.3,1.2-4.7,1.8-6.8,1.8c-0.2,0-0.3,0-0.5,0c0.7-0.8,1.5-1.8,2.5-3.2c1.3-1.7,2.5-3.8,3.8-6
		c1.2-2.2,2.3-4.5,3.3-7s1.3-4.8,1.3-7.3c0-1.5-0.3-2.8-0.8-4.2c-0.7-1.3-1.8-2.2-3.3-2.2c-2.2,0-3.5,0.8-4.2,2.3
		c-0.7,1.5-0.8,3.7-0.8,6.5c0,4.7-0.8,9-2.5,13c-1.7,3.8-3.7,7.3-6.2,10c-2.5,2.8-5.3,5-8.3,6.5c-3,1.5-6,2.3-8.8,2.3
		c-1.2,0-2-0.3-2.5-1c-0.3-0.7-0.7-1.5-0.7-2.7c0-1.3,0.8-3.5,2.3-6.7c1.5-3.3,4.3-8.2,8-14.8c3.8-6.5,8.7-15,15.2-25.6
		c6.3-10.5,14.2-23.5,23.5-39.1c0.2-0.2,0.2-0.3,0-0.5c-0.2-0.2-0.3-0.2-0.5-0.2l-9.7,1.5c-0.2,0-0.3,0.2-0.3,0.2
		c-3.2,5.7-6.5,11.3-9.8,17c-3.3,5.7-6.7,11-9.7,15.8c-3,4.8-5.8,9.2-8.2,12.8c-2.3,3.7-4.2,6.2-5.5,7.5c-0.5,0.7-1.7,1.8-3.2,3.7
		c-3.3,3.5-6.5,7.2-9.5,10.8c-2.2,2.5-2.2,2.8-2.2,3c0,0.3,0.2,1.2,1.2,1.2c0.3,0,0.7-0.2,0.8-0.3c0.2-0.2,0.7-0.7,1.2-1.3l2.5-3
		c1.2-1.3,2.8-3.2,4.7-5.3c2.7-2.8,4.7-5,5.8-6.5c0.5-0.7,0.8-1.2,1.2-1.3c-0.3,0.5-0.8,1.3-1.8,2.5c-1.5,1.8-3.3,4.2-5,6.7
		c-1.8,2.7-3.5,5.5-5,8.3c-1.5,3-2.3,6-2.3,8.8c0,3.2,0.7,5.8,2.2,8c1.3,2.2,3.7,3.2,7,3.2c0.2,0,0.3,0,0.5,0c2.2,0,4.5-0.5,6.7-1.3
		s4.2-2,6-3.2c1.8-1.2,3.5-2.3,5.2-3.7c1.5-1.2,2.7-2.2,3.5-3.2c0,0,0.2,0,0.3,0c0.3,0,0.7,0.2,1.2,0.2c2.7,0,5.5-0.7,8.5-2
		c3-1.3,5.5-3.3,7.8-5.8c0.8-1,1.7-1.8,2.3-2.8c0.3-0.5,0.8-0.8,1-0.8c0,0,0,0.2,0,0.5c0,0.5-0.2,1.2-0.3,2.2c-0.3,1-0.3,3-0.3,5.8
		c0,4.3,0.8,7.7,2.5,10.2c1.7,2.7,4.2,3.8,7.5,3.8c4.3,0,8.3-1.2,11.5-3.5c3.2-2.3,6-4.7,8.3-7.3c0.3,0,0.8,0.2,1.8,0.2
		c3,0,5.8-0.7,8.5-1.8C108.7,466.6,112.4,461.8,116.4,457.5z M201.6,534.6c-2.2,3.8-5.7,5-13.8,5h-2.3v-25.8h4.7
		c9.3,0,13.3,4.2,13.3,13.2C203.5,530.1,202.8,532.8,201.6,534.6z M371.7,457.3c1.7-2.7,3.7-5.3,6-7.8c2.3-2.5,4.7-4.5,7-6.2
		c2.3-1.7,4.5-2.5,6.5-2.5c1.8,0,2.7,0.8,2.7,2.5c0,2.7-0.8,5.2-2.7,7.5c-1.8,2.3-4,4.5-6.5,6.3c-2.7,1.8-5.5,3.3-8.5,4.5
		c-2.7,1-5.3,1.8-7.7,2.2C369,462,370,459.6,371.7,457.3z M251.1,463.1c2-4,4.3-7.8,7-11.2c2.7-3.3,5.7-6,8.7-8.2c3-2,5.7-3,7.8-3
		c1.8,0,3.3,0.3,4,1.2c0.8,0.8,1.2,2.2,1.2,4c0,2.5-1,5.7-3,9.3c-2,3.7-4.5,7.3-7.5,10.8c-3,3.5-6.2,6.5-9.7,9
		c-3.3,2.5-6.5,3.7-9.3,3.7c-0.3,0-1-0.2-1.5-1.2c-0.5-0.8-0.7-1.7-0.7-2.7C248.1,471.3,249.1,467.3,251.1,463.1z M90.9,468.3
		c-2.5,3-5.3,5.7-8.3,7.7c-3,2-6,3-9,3c-1,0-1.8-0.3-2.5-1c-0.7-0.7-1-2.2-1-4.2c0-3.2,0.8-6.7,2.3-10.3c1.5-3.8,3.5-7.5,6-10.8
		c2.5-3.3,5.2-6.2,8-8.3s5.7-3.3,8.2-3.3c1.8,0,3,0.7,3.7,1.8c0.8,1.3,1.2,2.8,1.2,4.7c0,3.3-0.8,7-2.3,10.7
		C95.5,461.8,93.4,465.3,90.9,468.3z"/>
	<rect x="103.7" y="619.7" class="st0" width="485" height="12"/>
	<path class="st0" d="M239.3,410.2c-1,1.3-1.5,2.8-1.5,4.2c0,1.2,0.3,2.3,1,3.2c0.7,0.8,1.7,1.3,3,1.3c1.8,0,3.3-0.7,4.3-2.2
		c1-1.3,1.5-2.8,1.5-4.2c0-1.2-0.3-2.3-1-3.2c-0.7-0.8-1.7-1.3-3-1.3C241.8,408,240.3,408.8,239.3,410.2z"/>
	<path class="st0" d="M440.6,514.1c2.8,0,4.7,0.3,5.8,0.8c2,1,3.5,2.2,4.7,3.8c1.2,1.7,2.2,4.3,3,8h1.7v-16h-53v16h1.7
		c0.7-4.3,2.2-7.7,4.7-10c1.8-1.7,4.7-2.5,8.7-2.5h4.2v45.5c0,3-0.2,4.8-0.5,5.5c-0.5,1-1,1.7-1.8,2.2c-1,0.7-2.3,0.8-4.2,0.8h-2
		v1.7h30.8v-1.7h-2c-1.7,0-3-0.3-4-0.8c-1-0.7-1.7-1.2-2-2c-0.3-0.8-0.5-2.7-0.5-5.7v-45.5h4.8V514.1z"/>
	<path class="st0" d="M153.5,564.4c3.5-3,5.3-6.7,5.3-11c0-4.2-1.7-7.5-4.8-10.2c-2.2-1.8-6.2-3.3-11.8-4.7c10.3-2.7,14-7.2,14-13
		c0-2.7-0.8-5.2-2.5-7.5c-1.7-2.3-3.8-4.3-6.7-5.5c-2.8-1.2-7.5-1.8-14.3-1.8h-28.1v1.7c2.7,0,4.5,0.3,5.5,0.8s1.7,1.2,2,2
		c0.5,0.8,0.7,2.8,0.7,6v38.3c0,3.2-0.2,5.2-0.7,6c-0.7,1.7-2.2,2.8-7.5,2.8v1.7h30C142.7,569.6,149,567.9,153.5,564.4z
		 M126.4,513.9c4.2,0,7.3,0.5,9.2,1.3c4,1.7,6,4.8,6,10.2c0,2.7-0.5,4.7-1.7,6.5c-2.2,3.3-5.5,5.3-13.7,5.3v-23.3H126.4z
		 M126.4,561.7v-2.2v-18.8c4.5-0.2,7.8,0.3,10,1.2c4.5,1.8,7.2,6.5,7.2,12c0,7.3-5.3,12.5-12.5,12.5
		C127.9,566.4,126.4,564.9,126.4,561.7z"/>
	<path class="st0" d="M390,515.3c0.5-1,1-1.7,1.8-2.2c1-0.7,2.3-0.8,4.2-0.8h2v-1.7h-30.8v1.7h2c1.7,0,3,0.3,4,0.8s1.7,1.2,2,2
		c0.3,0.7,0.5,2.7,0.5,5.7v16.8h-20.8v-16.8c0-3,0.2-4.8,0.5-5.5c0.5-1,1-1.7,1.8-2.2c1-0.7,2.3-0.8,4.2-0.8h2v-1.7h-30.8v1.7h2
		c1.7,0,3,0.3,4,0.8c1,0.5,1.7,1.2,2,2c0.3,0.7,0.5,2.7,0.5,5.7v38.8c0,3-0.2,4.8-0.5,5.5c-0.5,1-1,1.7-1.8,2.2
		c-1,0.7-2.3,0.8-4.2,0.8h-2v1.7h30.8v-1.7h-2c-1.7,0-3-0.3-3.8-0.8c-1-0.7-1.7-1.2-2-2c-0.3-0.8-0.5-2.7-0.5-5.7v-18.3h20.8v18.3
		c0,3-0.2,4.8-0.5,5.5c-0.5,1-1,1.7-1.8,2.2c-1,0.7-2.3,0.8-4.2,0.8h-2v1.7h30.8v-1.7h-2c-1.7,0-3-0.3-4-0.8c-1-0.7-1.7-1.2-1.8-2
		c-0.3-0.8-0.5-2.7-0.5-5.7v-38.8C389.5,517.8,389.7,515.9,390,515.3z"/>
	<path class="st0" d="M298.6,512.8c9.2,0,17.5,6,21.5,17.3h1.7v-20.8H320c-1.2,3.3-2.5,4.3-4.2,4.3c-0.5,0-2.2-0.5-5-1.7
		c-2.8-1.2-4.8-1.8-6.2-2c-2.3-0.5-5-0.7-8-0.7c-9.5,0-17.3,3-23.6,9.2c-6.2,6.2-9.3,13.7-9.3,22.5c0,4.8,1,9.5,3,13.5
		c1.7,3.2,3.8,5.8,6.7,8.3c5.7,4.8,12.5,8.2,23.8,8.2c8.7,0,16.8-1.7,24.3-5v-12.2c0-2.2,0.2-3.5,0.3-4.2c1-2,2.2-2.8,6.7-3.2v-1.7
		h-28.6v1.7h1.5c1.5,0,2.7,0.3,3.7,0.8c2,1,2.3,1.7,2.3,6.3v12.2c-3.2,1.2-6,1.8-8.8,1.8c-12.5,0.5-19.5-10-19-27.3
		c0-4.7,0.7-9.2,1.8-13.7C283.7,517.9,289.7,512.8,298.6,512.8z"/>
	<path class="st0" d="M424.1,375.2c61.6,0,164.4,5.8,164.4-81.9c0-3.5-0.3-6.8-0.7-10c-0.5,0.2-1,0.3-1.5,0.3c-1.3,0-2.3-0.5-3-1.3
		c-0.7-0.8-1-1.8-1-3.2c0-1.5,0.5-2.8,1.5-4.2c0.5-0.7,1.2-1.3,2-1.7c-9.8-33-43.8-48.5-78.8-52c-9.3-0.8-19-1.8-28.3-2.2v-8.8
		c43.5-0.8,102.4-15,102.4-69.1c0-23.6-10.8-40.1-27-51.6c-0.2,0.5-0.3,0.8-0.7,1.3c-1,1.3-2.5,2.2-4.3,2.2c-1.3,0-2.3-0.5-3-1.3
		c-0.7-0.8-1-1.8-1-3.2c0-1.3,0.5-2.7,1.3-3.8c-21.8-12.2-50.1-16.7-73.9-16.7h-95.3H103.7v12h71.1v283.3h-71.1v12h272.6h47.8V375.2
		z M546.6,237.8c1-1.3,2.5-2.2,4.3-2.2c1.3,0,2.3,0.5,3,1.3c0.7,0.8,1,1.8,1,3.2c0,1.5-0.5,2.8-1.5,4.2c-1,1.3-2.5,2.2-4.3,2.2
		c-1.3,0-2.3-0.5-3-1.3c-0.7-0.8-1-1.8-1-3.2C545.1,240.5,545.6,239.1,546.6,237.8z M546.6,314.4c1-1.3,2.5-2.2,4.3-2.2
		c1.3,0,2.3,0.5,3,1.3c0.7,0.8,1,1.8,1,3.2c0,1.5-0.5,2.8-1.5,4.2s-2.5,2.2-4.3,2.2c-1.3,0-2.3-0.5-3-1.3c-0.7-0.8-1-1.8-1-3.2
		C545.1,317.1,545.6,315.7,546.6,314.4z M507.2,274.9c1-1.3,2.5-2.2,4.3-2.2c1.3,0,2.3,0.5,3,1.3s1,1.8,1,3.2c0,1.5-0.5,2.8-1.5,4.2
		c-1,1.3-2.5,2.2-4.3,2.2c-1.3,0-2.3-0.5-3-1.3s-1-1.8-1-3.2C505.7,277.6,506.2,276.3,507.2,274.9z M507.2,351.5
		c1-1.3,2.5-2.2,4.3-2.2c1.3,0,2.3,0.5,3,1.3s1,1.8,1,3.2c0,1.5-0.5,2.8-1.5,4.2c-1,1.3-2.5,2.2-4.3,2.2c-1.3,0-2.3-0.5-3-1.3
		c-0.7-0.8-1-1.8-1-3.2C505.7,354.4,506.2,352.9,507.2,351.5z M546.6,161c1-1.3,2.5-2.2,4.3-2.2c1.3,0,2.3,0.5,3,1.3
		c0.7,0.8,1,1.8,1,3.2c0,1.5-0.5,2.8-1.5,4.2s-2.5,2.2-4.3,2.2c-1.3,0-2.3-0.5-3-1.3c-0.7-0.8-1-1.8-1-3.2S545.6,162.4,546.6,161z
		 M507.2,121.5c1-1.3,2.5-2.2,4.3-2.2c1.3,0,2.3,0.5,3,1.3s1,1.8,1,3.2c0,1.5-0.5,2.8-1.5,4.2c-1,1.3-2.5,2.2-4.3,2.2
		c-1.3,0-2.3-0.5-3-1.3s-1-1.8-1-3.2C505.7,124.4,506.2,122.9,507.2,121.5z M507.2,198.2c1-1.3,2.5-2.2,4.3-2.2c1.3,0,2.3,0.5,3,1.3
		s1,1.8,1,3.2c0,1.5-0.5,2.8-1.5,4.2c-1,1.3-2.5,2.2-4.3,2.2c-1.3,0-2.3-0.5-3-1.3c-0.7-0.8-1-1.8-1-3.2
		C505.7,201,506.2,199.5,507.2,198.2z M469.9,84.4c1-1.3,2.5-2.2,4.3-2.2c1.3,0,2.3,0.5,3,1.3c0.7,0.8,1,1.8,1,3.2
		c0,1.5-0.5,2.8-1.5,4.2c-1,1.3-2.5,2.2-4.3,2.2c-1.3,0-2.3-0.5-3-1.3c-0.7-0.8-1-1.8-1-3.2C468.4,87.1,468.9,85.7,469.9,84.4z
		 M469.9,161c1-1.3,2.5-2.2,4.3-2.2c1.3,0,2.3,0.5,3,1.3c0.7,0.8,1,1.8,1,3.2c0,1.5-0.5,2.8-1.5,4.2s-2.5,2.2-4.3,2.2
		c-1.3,0-2.3-0.5-3-1.3c-0.7-0.8-1-1.8-1-3.2S468.9,162.4,469.9,161z M469.9,237.8c1-1.3,2.5-2.2,4.3-2.2c1.3,0,2.3,0.5,3,1.3
		c0.7,0.8,1,1.8,1,3.2c0,1.5-0.5,2.8-1.5,4.2c-1,1.3-2.5,2.2-4.3,2.2c-1.3,0-2.3-0.5-3-1.3c-0.7-0.8-1-1.8-1-3.2
		C468.4,240.5,468.9,239.1,469.9,237.8z M469.9,314.4c1-1.3,2.5-2.2,4.3-2.2c1.3,0,2.3,0.5,3,1.3c0.7,0.8,1,1.8,1,3.2
		c0,1.5-0.5,2.8-1.5,4.2s-2.5,2.2-4.3,2.2c-1.3,0-2.3-0.5-3-1.3c-0.7-0.8-1-1.8-1-3.2C468.4,317.1,468.9,315.7,469.9,314.4z
		 M430.5,121.5c1-1.3,2.5-2.2,4.3-2.2c1.3,0,2.3,0.5,3,1.3c0.7,0.8,1,1.8,1,3.2c0,1.5-0.5,2.8-1.5,4.2c-1,1.3-2.5,2.2-4.3,2.2
		c-1.3,0-2.3-0.5-3-1.3c-0.7-0.8-1-1.8-1-3.2C429.1,124.4,429.6,122.9,430.5,121.5z M430.5,198.2c1-1.3,2.5-2.2,4.3-2.2
		c1.3,0,2.3,0.5,3,1.3c0.7,0.8,1,1.8,1,3.2c0,1.5-0.5,2.8-1.5,4.2c-1,1.3-2.5,2.2-4.3,2.2c-1.3,0-2.3-0.5-3-1.3
		c-0.7-0.8-1-1.8-1-3.2C429.1,201,429.6,199.5,430.5,198.2z M430.5,274.9c1-1.3,2.5-2.2,4.3-2.2c1.3,0,2.3,0.5,3,1.3
		c0.7,0.8,1,1.8,1,3.2c0,1.5-0.5,2.8-1.5,4.2c-1,1.3-2.5,2.2-4.3,2.2c-1.3,0-2.3-0.5-3-1.3c-0.7-0.8-1-1.8-1-3.2
		C429.1,277.6,429.6,276.3,430.5,274.9z M430.5,351.5c1-1.3,2.5-2.2,4.3-2.2c1.3,0,2.3,0.5,3,1.3c0.7,0.8,1,1.8,1,3.2
		c0,1.5-0.5,2.8-1.5,4.2c-1,1.3-2.5,2.2-4.3,2.2c-1.3,0-2.3-0.5-3-1.3c-0.7-0.8-1-1.8-1-3.2C429.1,354.4,429.6,352.9,430.5,351.5z
		 M393.3,84.4c1-1.3,2.5-2.2,4.3-2.2c1.3,0,2.3,0.5,3,1.3s1,1.8,1,3.2c0,1.5-0.5,2.8-1.5,4.2c-1,1.3-2.5,2.2-4.3,2.2
		c-1.3,0-2.3-0.5-3-1.3c-0.7-0.8-1-1.8-1-3.2C391.8,87.1,392.3,85.7,393.3,84.4z M348,79.9h10.2c22.7,0,34.1,9.8,34.1,32.8v50
		c0.2-0.5,0.5-1.2,0.8-1.7c1-1.3,2.5-2.2,4.3-2.2c1.3,0,2.3,0.5,3,1.3s1,1.8,1,3.2c0,1.5-0.5,2.8-1.5,4.2c-1,1.3-2.5,2.2-4.3,2.2
		c-1.3,0-2.3-0.5-3-1.3c-0.2-0.3-0.3-0.5-0.5-0.8v6.8c0,20-8,34.6-25.3,34.6h-19V79.9H348z M207.6,358c-1,1.3-2.5,2.2-4.3,2.2
		c-1.3,0-2.3-0.5-3-1.3c-0.7-0.8-1-1.8-1-3.2c0-1.5,0.5-2.8,1.5-4.2c1-1.3,2.5-2.2,4.3-2.2c1.3,0,2.3,0.5,3,1.3c0.7,0.8,1,1.8,1,3.2
		C209,355.4,208.5,356.7,207.6,358z M207.6,281.4c-1,1.3-2.5,2.2-4.3,2.2c-1.3,0-2.3-0.5-3-1.3c-0.7-0.8-1-1.8-1-3.2
		c0-1.5,0.5-2.8,1.5-4.2c1-1.3,2.5-2.2,4.3-2.2c1.3,0,2.3,0.5,3,1.3c0.7,0.8,1,1.8,1,3.2C209,278.6,208.5,280.1,207.6,281.4z
		 M207.6,204.8c-1,1.3-2.5,2.2-4.3,2.2c-1.3,0-2.3-0.5-3-1.3c-0.7-0.8-1-1.8-1-3.2c0-1.5,0.5-2.8,1.5-4.2c1-1.3,2.5-2.2,4.3-2.2
		c1.3,0,2.3,0.5,3,1.3c0.7,0.8,1,1.8,1,3.2C209,202,208.5,203.3,207.6,204.8z M207.6,128c-1,1.3-2.5,2.2-4.3,2.2
		c-1.3,0-2.3-0.5-3-1.3c-0.7-0.8-1-1.8-1-3.2c0-1.5,0.5-2.8,1.5-4.2c1-1.3,2.5-2.2,4.3-2.2c1.3,0,2.3,0.5,3,1.3c0.7,0.8,1,1.8,1,3.2
		C209,125.4,208.5,126.7,207.6,128z M246.9,320.9c-1,1.3-2.5,2.2-4.3,2.2c-1.3,0-2.3-0.5-3-1.3c-0.7-0.8-1-1.8-1-3.2
		c0-1.5,0.5-2.8,1.5-4.2c1-1.3,2.5-2.2,4.3-2.2c1.3,0,2.3,0.5,3,1.3s1,1.8,1,3.2C248.4,318.2,247.9,319.6,246.9,320.9z M246.9,244.3
		c-1,1.3-2.5,2.2-4.3,2.2c-1.3,0-2.3-0.5-3-1.3c-0.7-0.8-1-1.8-1-3.2c0-1.5,0.5-2.8,1.5-4.2c1-1.3,2.5-2.2,4.3-2.2
		c1.3,0,2.3,0.5,3,1.3s1,1.8,1,3.2C248.4,241.5,247.9,243,246.9,244.3z M246.9,167.5c-1,1.3-2.5,2.2-4.3,2.2c-1.3,0-2.3-0.5-3-1.3
		c-0.7-0.8-1-1.8-1-3.2c0-1.5,0.5-2.8,1.5-4.2c1-1.3,2.5-2.2,4.3-2.2c1.3,0,2.3,0.5,3,1.3s1,1.8,1,3.2
		C248.4,164.8,247.9,166.2,246.9,167.5z M246.9,90.9c-1,1.3-2.5,2.2-4.3,2.2c-1.3,0-2.3-0.5-3-1.3c-0.7-0.8-1-1.8-1-3.2
		c0-1.5,0.5-2.8,1.5-4.2c1-1.3,2.5-2.2,4.3-2.2c1.3,0,2.3,0.5,3,1.3s1,1.8,1,3.2C248.4,88.2,247.9,89.6,246.9,90.9z M284.2,358
		c-1,1.3-2.5,2.2-4.3,2.2c-1.3,0-2.3-0.5-3-1.3c-0.7-0.8-1-1.8-1-3.2c0-1.5,0.5-2.8,1.5-4.2c1-1.3,2.5-2.2,4.3-2.2
		c1.3,0,2.3,0.5,3,1.3c0.7,0.8,1,1.8,1,3.2C285.7,355.4,285.2,356.7,284.2,358z M284.2,281.4c-1,1.3-2.5,2.2-4.3,2.2
		c-1.3,0-2.3-0.5-3-1.3c-0.7-0.8-1-1.8-1-3.2c0-1.5,0.5-2.8,1.5-4.2c1-1.3,2.5-2.2,4.3-2.2c1.3,0,2.3,0.5,3,1.3c0.7,0.8,1,1.8,1,3.2
		C285.7,278.6,285.2,280.1,284.2,281.4z M284.2,204.8c-1,1.3-2.5,2.2-4.3,2.2c-1.3,0-2.3-0.5-3-1.3c-0.7-0.8-1-1.8-1-3.2
		c0-1.5,0.5-2.8,1.5-4.2s2.5-2.2,4.3-2.2c1.3,0,2.3,0.5,3,1.3c0.7,0.8,1,1.8,1,3.2S285.2,203.3,284.2,204.8z M284.2,128
		c-1,1.3-2.5,2.2-4.3,2.2c-1.3,0-2.3-0.5-3-1.3c-0.7-0.8-1-1.8-1-3.2c0-1.5,0.5-2.8,1.5-4.2s2.5-2.2,4.3-2.2c1.3,0,2.3,0.5,3,1.3
		c0.7,0.8,1,1.8,1,3.2C285.7,125.4,285.2,126.7,284.2,128z M323.5,320.9c-1,1.3-2.5,2.2-4.3,2.2c-1.3,0-2.3-0.5-3-1.3s-1-1.8-1-3.2
		c0-1.5,0.5-2.8,1.5-4.2c1-1.3,2.5-2.2,4.3-2.2c1.3,0,2.3,0.5,3,1.3s1,1.8,1,3.2C325,318.2,324.5,319.6,323.5,320.9z M323.5,244.3
		c-1,1.3-2.5,2.2-4.3,2.2c-1.3,0-2.3-0.5-3-1.3c-0.7-0.8-1-1.8-1-3.2c0-1.5,0.5-2.8,1.5-4.2c1-1.3,2.5-2.2,4.3-2.2
		c1.3,0,2.3,0.5,3,1.3s1,1.8,1,3.2C325,241.5,324.5,243,323.5,244.3z M323.5,167.5c-1,1.3-2.5,2.2-4.3,2.2c-1.3,0-2.3-0.5-3-1.3
		s-1-1.8-1-3.2c0-1.5,0.5-2.8,1.5-4.2c1-1.3,2.5-2.2,4.3-2.2c1.3,0,2.3,0.5,3,1.3s1,1.8,1,3.2C325,164.8,324.5,166.2,323.5,167.5z
		 M323.5,90.9c-1,1.3-2.5,2.2-4.3,2.2c-1.3,0-2.3-0.5-3-1.3c-0.7-0.8-1-1.8-1-3.2c0-1.5,0.5-2.8,1.5-4.2c1-1.3,2.5-2.2,4.3-2.2
		c1.3,0,2.3,0.5,3,1.3s1,1.8,1,3.2C325,88.2,324.5,89.6,323.5,90.9z M348,363.2V221.3h10.7c15.3,0,28.1,3.2,34.5,16.5c0,0,0,0,0-0.2
		c1-1.3,2.5-2.2,4.3-2.2c1.3,0,2.3,0.5,3,1.3s1,1.8,1,3.2c0,1.5-0.5,2.8-1.5,4.2c-1,1.3-2.3,2-4.2,2c1,4.5,1.7,9.7,1.7,15.8v50.1
		c1.3,0,2.3,0.5,3,1.3s1,1.8,1,3.2c0,1.5-0.5,2.8-1.5,4.2c-0.7,0.8-1.5,1.3-2.5,1.7c-0.2,13.5-2.8,40.5-34.5,40.5h-15V363.2z"/>
</g>
</svg>
